<?xml version="1.0" encoding="utf-8"?>
<!-- Generator: Adobe Illustrator 22.0.1, SVG Export Plug-In . SVG Version: 6.00 Build 0)  -->
<svg version="1.1" baseProfile="tiny" id="Слой_1"
	 xmlns="http://www.w3.org/2000/svg" xmlns:xlink="http://www.w3.org/1999/xlink" x="0px" y="0px" viewBox="0 0 9 9"
	 xml:space="preserve">
<g>
	<g id="XMLID_1_">
		<g>
			<rect x="8" y="7" fill="#FFFFFF" width="1" height="1"/>
			<rect x="8" y="3" fill="#FFFFFF" width="1" height="1"/>
			<rect x="7" y="5" fill="#FFFFFF" width="1" height="1"/>
			<rect x="7" y="1" fill="#FFFFFF" width="1" height="1"/>
			<rect x="7" fill="#FFFFFF" width="1" height="1"/>
			<rect x="6" y="8" fill="#FFFFFF" width="1" height="1"/>
			<rect x="6" y="6" fill="#FFFFFF" width="1" height="1"/>
			<rect x="6" y="5" fill="#FFFFFF" width="1" height="1"/>
			<rect x="6" y="4" fill="#FFFFFF" width="1" height="1"/>
			<rect x="6" y="3" fill="#FFFFFF" width="1" height="1"/>
			<rect x="6" y="2" fill="#FFFFFF" width="1" height="1"/>
			<rect x="6" y="1" fill="#FFFFFF" width="1" height="1"/>
			<rect x="5" y="8" fill="#FFFFFF" width="1" height="1"/>
			<rect x="5" y="7" fill="#FFFFFF" width="1" height="1"/>
			<rect x="5" y="6" fill="#FFFFFF" width="1" height="1"/>
			<rect x="5" y="5" fill="#FFFFFF" width="1" height="1"/>
			<rect x="5" y="2" fill="#FFFFFF" width="1" height="1"/>
			<rect x="5" fill="#FFFFFF" width="1" height="1"/>
			<rect x="4" y="5" fill="#FFFFFF" width="1" height="1"/>
			<rect x="4" y="4" fill="#FFFFFF" width="1" height="1"/>
			<rect x="4" y="3" fill="#FFFFFF" width="1" height="1"/>
			<rect x="4" y="2" fill="#FFFFFF" width="1" height="1"/>
			<rect x="3" y="8" fill="#FFFFFF" width="1" height="1"/>
			<rect x="3" y="5" fill="#FFFFFF" width="1" height="1"/>
			<rect x="3" y="2" fill="#FFFFFF" width="1" height="1"/>
			<rect x="3" y="1" fill="#FFFFFF" width="1" height="1"/>
			<rect x="2" y="5" fill="#FFFFFF" width="1" height="1"/>
			<rect x="2" y="4" fill="#FFFFFF" width="1" height="1"/>
			<rect x="2" y="3" fill="#FFFFFF" width="1" height="1"/>
			<rect x="2" y="2" fill="#FFFFFF" width="1" height="1"/>
			<rect x="2" y="1" fill="#FFFFFF" width="1" height="1"/>
			<rect x="2" fill="#FFFFFF" width="1" height="1"/>
			<rect x="1" y="7" fill="#FFFFFF" width="1" height="1"/>
			<rect x="1" y="5" fill="#FFFFFF" width="1" height="1"/>
			<rect x="1" y="4" fill="#FFFFFF" width="1" height="1"/>
			<rect x="1" y="1" fill="#FFFFFF" width="1" height="1"/>
			<rect y="8" fill="#FFFFFF" width="1" height="1"/>
			<rect y="7" fill="#FFFFFF" width="1" height="1"/>
			<rect y="6" fill="#FFFFFF" width="1" height="1"/>
			<rect y="3" fill="#FFFFFF" width="1" height="1"/>
		</g>
		<g>
		</g>
	</g>
</g>
</svg>
